<svg id="enNe7BJR51O1" xmlns="http://www.w3.org/2000/svg" xmlns:xlink="http://www.w3.org/1999/xlink" viewBox="0 0 800 170" shape-rendering="geometricPrecision" text-rendering="geometricPrecision"><path d="M56.583886,466.034655q115.284181-18.5024,140.902889-29.176861c25.618708-10.674461,37.0048-28.46523,71.163076-18.5024s41.986214,8.392562,64.046767-4.981417s19.214031-32.735015,27.7536-26.330338s3.558153,27.04197,29.888491,49.102523s17.790767,27.041968,72.586336,21.348922s49.462764-24.195446,114.536791-39.13969s60.524375,34.01127,101.798959,7.827937s61.753813-36.492863,80.664457-88.722261" transform="translate(-3.518637-311.841853)" fill="none" stroke="#fff" stroke-width="3"/><ellipse rx="4.9408" ry="5.202579" transform="matrix(1.849166 0 0 1.740898 756.406615 16.562056)" fill="none" stroke="#fff" stroke-width="2"/><ellipse rx="4.9408" ry="5.202579" transform="matrix(1.849166 0 0 1.740898 43.593385 155.1928)" fill="none" stroke="#fff" stroke-width="2"/><ellipse rx="5.938409" ry="5.938409" transform="matrix(.839732 0 0 0.840308 217.96077 111.920261)" fill="#fff" stroke="#192c4c" stroke-width="3"/><ellipse rx="5.938409" ry="5.938409" transform="matrix(.839732 0 0 0.840308 354.371448 74.077816)" fill="#fff" stroke="#192c4c" stroke-width="3"/><ellipse rx="5.938409" ry="5.938409" transform="matrix(.839732 0 0 0.840308 519.624311 126.132368)" fill="#fff" stroke="#192c4c" stroke-width="3"/><ellipse rx="5.938409" ry="5.938409" transform="matrix(.839732 0 0 0.840308 671.446619 116.152182)" fill="#fff" stroke="#192c4c" stroke-width="3"/></svg>